<svg width="58" height="63" viewBox="0 0 58 63" fill="none" xmlns="http://www.w3.org/2000/svg">
<g clip-path="url(#clip0_145_3)">
<path fill-rule="evenodd" clip-rule="evenodd" d="M33.5 26C40.2681 26 45.75 20.1825 45.75 13C45.75 5.8175 40.2681 0 33.5 0C26.7319 0 21.25 5.8175 21.25 13C21.25 20.1825 26.7319 26 33.5 26ZM33.5 32.5C25.3231 32.5 9 36.855 9 45.5V48.75C9 50.5375 10.3781 52 12.0625 52H54.9375C56.6219 52 58 50.5375 58 48.75V45.5C58 36.855 41.6769 32.5 33.5 32.5Z" fill="#49B8A4"/>
</g>
<circle cx="15.2778" cy="46.889" r="13.7778" fill="#F4F4F4" stroke="#49B8A4" stroke-width="3"/>
<g clip-path="url(#clip1_145_3)">
<path fill-rule="evenodd" clip-rule="evenodd" d="M20.5159 47.7621H16.1508V52.1272C16.1508 52.6073 15.7579 53.0002 15.2778 53.0002C14.7976 53.0002 14.4048 52.6073 14.4048 52.1272V47.7621H10.0397C9.55953 47.7621 9.16667 47.3692 9.16667 46.8891C9.16667 46.4089 9.55953 46.016 10.0397 46.016H14.4048V41.651C14.4048 41.1708 14.7976 40.778 15.2778 40.778C15.7579 40.778 16.1508 41.1708 16.1508 41.651V46.016H20.5159C20.996 46.016 21.3889 46.4089 21.3889 46.8891C21.3889 47.3692 20.996 47.7621 20.5159 47.7621Z" fill="#49B8A4"/>
</g>
<defs>
<clipPath id="clip0_145_3">
<rect width="49" height="52" fill="white" transform="translate(9)"/>
</clipPath>
<clipPath id="clip1_145_3">
<rect width="12.2222" height="12.2222" fill="white" transform="translate(9.16667 40.778)"/>
</clipPath>
</defs>
</svg>
