<svg width="78" height="78" viewBox="0 0 78 78" fill="none" xmlns="http://www.w3.org/2000/svg">
<path d="M64.8153 36.5616C64.8104 36.0815 64.6157 35.6229 64.2737 35.2859L59.0986 30.6524L40.2035 13.8032C39.8725 13.5072 39.4441 13.3435 39 13.3435C38.5559 13.3435 38.1275 13.5072 37.7965 13.8032L18.9495 30.6524L13.7263 35.2859C13.3865 35.5994 13.1761 36.0287 13.1366 36.4894C13.1061 36.9271 13.234 37.3611 13.4969 37.7124C13.7598 38.0637 14.1402 38.3088 14.5687 38.403C14.5687 38.4631 18.1793 38.403 18.2996 38.403V63.2916C18.2996 63.7703 18.4898 64.2295 18.8284 64.5681C19.1669 64.9066 19.6261 65.0968 20.1049 65.0968H32.3205C32.5626 65.1049 32.8038 65.0642 33.0299 64.9771C33.2559 64.89 33.4621 64.7583 33.6361 64.5898C33.8102 64.4214 33.9486 64.2196 34.043 63.9966C34.1375 63.7736 34.1861 63.5338 34.186 63.2916V48.3199H43.9344V63.2916C43.9344 63.7703 44.1246 64.2295 44.4631 64.5681C44.8017 64.9066 45.2609 65.0968 45.7397 65.0968H57.847C58.3258 65.0968 58.7849 64.9066 59.1235 64.5681C59.462 64.2295 59.6522 63.7703 59.6522 63.2916V38.4391C59.8207 38.4391 63.3711 38.4391 63.3831 38.4391C63.8063 38.348 64.1831 38.1088 64.4457 37.7646C64.7083 37.4204 64.8393 36.9938 64.8153 36.5616V36.5616Z" fill="#49B8A4"/>
<circle cx="22.0546" cy="59.2477" r="13.9049" fill="white" stroke="#49B8A4" stroke-width="3"/>
<g clip-path="url(#clip0_141_374)">
<path fill-rule="evenodd" clip-rule="evenodd" d="M27.3363 60.1279H22.9348V64.5294C22.9348 65.0135 22.5387 65.4096 22.0546 65.4096C21.5704 65.4096 21.1743 65.0135 21.1743 64.5294V60.1279H16.7729C16.2887 60.1279 15.8926 59.7318 15.8926 59.2477C15.8926 58.7635 16.2887 58.3674 16.7729 58.3674H21.1743V53.966C21.1743 53.4818 21.5704 53.0857 22.0546 53.0857C22.5387 53.0857 22.9348 53.4818 22.9348 53.966V58.3674H27.3363C27.8204 58.3674 28.2165 58.7635 28.2165 59.2477C28.2165 59.7318 27.8204 60.1279 27.3363 60.1279Z" fill="#49B8A4"/>
</g>
<defs>
<clipPath id="clip0_141_374">
<rect width="12.3239" height="12.3239" fill="white" transform="translate(15.8926 53.0857)"/>
</clipPath>
</defs>
</svg>
