<svg width="360" height="640" viewBox="0 0 360 640" fill="none" xmlns="http://www.w3.org/2000/svg">
<path d="M1.52201 80.6922C5.97201 82.5422 15.182 82.0622 18.252 81.9022C23.062 81.6522 26.652 80.9422 27.862 80.6922C35.672 79.0622 41.182 76.2422 42.972 75.3622C57.502 68.1822 67.652 69.5322 96.302 58.4722C108.912 53.6022 108.982 52.5622 120.302 48.6922C124.512 47.2522 135.602 43.6122 150.522 40.6922C165.642 37.7322 176.722 35.5622 191.412 36.2522C196.772 36.5022 201.942 37.1022 210.082 36.2522C219.742 35.2422 226.482 34.5422 230.522 30.0322C236.232 23.6422 235.402 10.1322 229.632 1.59221C211.532 -25.1878 138.272 -12.6278 118.522 3.26221C116.842 4.61221 112.332 8.57221 105.192 10.4822C101.882 11.3722 95.252 12.5522 80.302 8.70221C70.342 6.14221 68.772 4.46221 59.862 1.59221C46.602 -2.66779 33.852 -6.76779 21.642 -2.73779C9.77201 1.16221 3.33201 11.1122 0.30201 15.8122C-15.288 39.9122 -10.908 75.5122 1.52201 80.6922Z" fill="#86D6C7" fill-opacity="0.28"/>
<path d="M354.522 399.512C350.732 398.152 347.552 399.032 337.302 402.472C317.982 408.962 309.602 412.452 302.342 414.912C288.952 419.472 275.572 424.022 258.492 423.212C248.622 422.742 240.562 420.632 228.272 423.802C218.932 426.212 215.332 429.562 213.462 432.692C212.692 433.972 210.422 438.192 211.682 446.322C214.592 464.972 232.022 477.642 237.162 481.282C240.442 483.602 238.482 481.872 275.682 498.472C284.132 502.242 293.192 504.462 301.752 507.952C306.072 509.712 311.532 512.042 318.342 510.912C320.652 510.532 326.522 509.562 328.412 505.582C331.032 500.062 324.682 491.592 320.112 487.212C309.302 476.832 297.952 479.222 295.812 471.802C294.102 465.862 299.952 459.412 300.552 458.762C304.072 454.972 308.472 453.692 312.402 452.832C333.332 448.272 342.322 455.482 354.512 449.272C356.132 448.452 362.162 445.282 365.732 438.602C373.112 424.862 366.072 403.652 354.522 399.512Z" fill="#FFC092" fill-opacity="0.31"/>
<path d="M-5.47804 464.692C-5.07804 463.242 -1.59804 450.882 6.63196 438.022C9.31196 433.832 11.372 431.352 13.742 429.132C18.122 425.042 22.152 423.172 29.742 419.652C38.152 415.752 41.162 415.532 42.782 415.502C44.852 415.472 48.682 415.462 52.262 417.872C54.802 419.572 56.052 421.712 57.592 424.392C60.562 429.572 61.562 434.182 61.742 435.062C64.122 446.552 63.002 465.562 62.932 471.802C62.892 475.612 66.462 487.232 73.602 510.322C79.082 528.032 82.862 540.262 89.012 558.912C95.992 580.082 99.482 590.672 100.272 592.692C104.622 603.802 107.942 610.512 109.752 621.732C111.162 630.452 112.322 637.592 110.342 643.252C100.712 670.802 12.562 674.732 1.30196 649.582C-1.11804 644.182 0.0819645 637.592 0.711965 634.172C2.99196 621.672 10.582 617.722 20.272 602.762C23.982 597.032 29.362 588.582 32.712 576.692C37.122 561.042 35.352 548.842 33.902 538.762C31.412 521.562 26.932 519.192 25.602 518.612C21.922 517.012 17.922 518.512 13.162 520.392C-0.548036 525.782 -3.20804 533.792 -6.98804 532.832C-15.368 530.732 -12.108 488.882 -5.47804 464.692Z" fill="#86D6C7" fill-opacity="0.28"/>
</svg>
