<svg width="25" height="25" viewBox="0 0 19 19" marginLeft="-5px" marginRight="-4px"  fill="none" xmlns="http://www.w3.org/2000/svg">
<path d="M5.5813 8.53536C15.5802 8.42317 15.5347 8.31599 15.4548 8.23724L14.2454 7.15442L9.82976 3.21693C9.75241 3.14774 9.65228 3.1095 9.54851 3.1095C9.44474 3.1095 9.34461 3.14774 9.26726 3.21693L4.86289 7.15442L3.64226 8.23724C3.56285 8.31051 3.51369 8.41083 3.50445 8.51849C3.49734 8.62077 3.52722 8.72221 3.58866 8.8043C3.6501 8.88639 3.73899 8.94366 3.83914 8.96567C3.83914 8.97974 4.68289 8.96567 4.71101 8.96567V14.7819C4.71101 14.8938 4.75546 15.0011 4.83458 15.0802C4.91369 15.1594 5.021 15.2038 5.13289 15.2038H7.98757C8.04415 15.2057 8.10052 15.1962 8.15334 15.1758C8.20616 15.1555 8.25434 15.1247 8.29502 15.0853C8.33569 15.046 8.36803 14.9988 8.39011 14.9467C8.41218 14.8946 8.42354 14.8385 8.42351 14.7819V11.2832H10.7016V14.7819C10.7016 14.8938 10.7461 15.0011 10.8252 15.0802C10.9043 15.1594 11.0116 15.2038 11.1235 15.2038H13.9529C14.0648 15.2038 14.1721 15.1594 14.2512 15.0802C14.3303 15.0011 14.3748 14.8938 14.3748 14.7819V8.97411C14.4141 8.97411 15.2438 8.97411 15.2466 8.97411C15.3455 8.95283 15.4336 8.89694 15.495 8.8165C15.5563 8.73607 15.5869 8.63637 15.5813 8.53536Z" fill="white"/>
</svg>
