<svg width="17" height="17" viewBox="0 0 11 11" fill="none" xmlns="http://www.w3.org/2000/svg">
<g clip-path="url(#clip0_39_274)">
<path d="M7.99101 5.49904L10.483 3.00707C11.1711 2.31896 11.1711 1.20322 10.483 0.515107C9.79488 -0.173004 8.67914 -0.173004 7.99101 0.515107L5.49904 3.00707L3.00707 0.515125C2.31896 -0.172986 1.20322 -0.172986 0.515107 0.515125C-0.173004 1.20324 -0.173004 2.31898 0.515107 3.00709L3.00707 5.49904L0.515125 7.99101C-0.172986 8.6791 -0.172986 9.79486 0.515125 10.483C1.20324 11.1711 2.31898 11.1711 3.00709 10.483L5.49904 7.99101L7.99101 10.483C8.6791 11.1711 9.79486 11.1711 10.483 10.483C11.1711 9.79488 11.1711 8.67912 10.483 7.99101L7.99101 5.49904Z" fill="#557D76"/>
</g>
<defs>
<clipPath id="clip0_39_274">
<rect width="11" height="11" fill="white"/>
</clipPath>
</defs>
</svg>
