<svg width="20" height="19" viewBox="0 0 20 19" fill="none" xmlns="http://www.w3.org/2000/svg">
<path d="M16.625 3.65625V5.0625H4.53125C4.15829 5.0625 3.8006 4.91434 3.53688 4.65062C3.27316 4.3869 3.125 4.02921 3.125 3.65625C3.125 3.28329 3.27316 2.9256 3.53688 2.66188C3.8006 2.39816 4.15829 2.25 4.53125 2.25H15.2188C15.5917 2.25 15.9494 2.39816 16.2131 2.66188C16.4768 2.9256 16.625 3.28329 16.625 3.65625Z" fill="white"/>
<path d="M13.25 10.4062C13.2507 9.73512 13.5177 9.09172 13.9922 8.61718C14.4667 8.14264 15.1101 7.87572 15.7812 7.87498H18.3125V7.59373C18.3115 7.22108 18.163 6.864 17.8995 6.6005C17.636 6.33701 17.2789 6.18851 16.9062 6.18748H4.53125C4.43678 6.18722 4.34257 6.17761 4.25 6.15879C3.84829 6.11789 3.46238 5.9807 3.125 5.75885V12.9375C3.125 13.6834 3.42132 14.3988 3.94876 14.9262C4.47621 15.4537 5.19158 15.75 5.9375 15.75H15.5C16.2459 15.75 16.9613 15.4537 17.4887 14.9262C18.0162 14.3988 18.3125 13.6834 18.3125 12.9375H15.7812C15.1101 12.9367 14.4667 12.6698 13.9922 12.1953C13.5177 11.7207 13.2507 11.0773 13.25 10.4062Z" fill="white"/>
<path d="M15.7812 9H18.3125C18.4617 9 18.6048 9.05926 18.7102 9.16475C18.8157 9.27024 18.875 9.41332 18.875 9.5625V11.25C18.875 11.3992 18.8157 11.5423 18.7102 11.6477C18.6048 11.7532 18.4617 11.8125 18.3125 11.8125H15.7812C15.4083 11.8125 15.0506 11.6643 14.7869 11.4006C14.5232 11.1369 14.375 10.7792 14.375 10.4062C14.375 10.0333 14.5232 9.6756 14.7869 9.41188C15.0506 9.14816 15.4083 9 15.7812 9Z" fill="white"/>
<circle cx="5" cy="14" r="4.5" fill="white" stroke="#4C9D8F"/>
<g clip-path="url(#clip0_208_40)">
<path fill-rule="evenodd" clip-rule="evenodd" d="M6.71429 14.2857H5.28571V15.7143C5.28571 15.8714 5.15714 16 5 16C4.84286 16 4.71429 15.8714 4.71429 15.7143V14.2857H3.28571C3.12857 14.2857 3 14.1571 3 14C3 13.8429 3.12857 13.7143 3.28571 13.7143H4.71429V12.2857C4.71429 12.1286 4.84286 12 5 12C5.15714 12 5.28571 12.1286 5.28571 12.2857V13.7143H6.71429C6.87143 13.7143 7 13.8429 7 14C7 14.1571 6.87143 14.2857 6.71429 14.2857Z" fill="#4C9D8F"/>
</g>
<defs>
<clipPath id="clip0_208_40">
<rect width="4" height="4" fill="white" transform="translate(3 12)"/>
</clipPath>
</defs>
</svg>
