<svg width="107" height="21" viewBox="0 0 107 21" fill="none" xmlns="http://www.w3.org/2000/svg">
<path d="M4.53846 17.4615H14.9692V21H0.569231V0.0461528H14.9692V3.58461H4.53846V8.75385H14.9692V12.2615H4.53846V17.4615ZM25.8404 17.4615C26.3327 17.4615 26.7532 17.3487 27.1019 17.1231C27.4506 16.8769 27.6763 16.5487 27.7788 16.1385H31.4404C31.2558 17.6154 30.6814 18.7949 29.7173 19.6769C28.7532 20.559 27.4609 21 25.8404 21H24.5788C23.6968 21 22.8968 20.8667 22.1788 20.6C21.4609 20.3333 20.8558 19.9538 20.3635 19.4615C19.8712 18.9487 19.4814 18.3436 19.1942 17.6462C18.9276 16.9282 18.7942 16.1385 18.7942 15.2769V11.0615C18.7942 10.1795 18.9276 9.38974 19.1942 8.69231C19.4814 7.99487 19.8712 7.4 20.3635 6.90769C20.8558 6.41538 21.4609 6.0359 22.1788 5.76923C22.8968 5.48205 23.6968 5.33846 24.5788 5.33846H25.8404C27.5019 5.33846 28.8147 5.77949 29.7788 6.66154C30.7429 7.54359 31.2968 8.75385 31.4404 10.2923H27.8096C27.6865 9.84103 27.4609 9.49231 27.1327 9.24615C26.8045 9 26.3737 8.87692 25.8404 8.87692H24.5788C23.9224 8.87692 23.3788 9.09231 22.9481 9.52308C22.5378 9.93333 22.3327 10.4769 22.3327 11.1538V15.1538C22.3327 15.8308 22.5378 16.3846 22.9481 16.8154C23.3788 17.2462 23.9224 17.4615 24.5788 17.4615H25.8404ZM41.4149 5.33846C42.3175 5.33846 43.1175 5.48205 43.8149 5.76923C44.5329 6.0359 45.138 6.41538 45.6303 6.90769C46.1431 7.4 46.5329 7.99487 46.7995 8.69231C47.0662 9.38974 47.1995 10.1795 47.1995 11.0615V15.2769C47.1995 16.1385 47.0662 16.9282 46.7995 17.6462C46.5329 18.3436 46.1431 18.9487 45.6303 19.4615C45.138 19.9538 44.5329 20.3333 43.8149 20.6C43.1175 20.8667 42.3175 21 41.4149 21H40.1534C39.2713 21 38.4713 20.8667 37.7534 20.6C37.0354 20.3333 36.42 19.9538 35.9072 19.4615C35.4149 18.9487 35.0354 18.3436 34.7687 17.6462C34.5226 16.9282 34.3995 16.1385 34.3995 15.2769V11.0615C34.3995 10.1795 34.5226 9.38974 34.7687 8.69231C35.0354 7.99487 35.4149 7.4 35.9072 6.90769C36.42 6.41538 37.0354 6.0359 37.7534 5.76923C38.4713 5.48205 39.2713 5.33846 40.1534 5.33846H41.4149ZM40.1534 8.87692C39.5175 8.87692 38.9739 9.09231 38.5226 9.52308C38.0918 9.93333 37.8764 10.4769 37.8764 11.1538V15.1538C37.8764 15.8308 38.0918 16.3846 38.5226 16.8154C38.9739 17.2462 39.5175 17.4615 40.1534 17.4615H41.4149C42.0713 17.4615 42.6046 17.2462 43.0149 16.8154C43.4457 16.3846 43.6611 15.8308 43.6611 15.1538V11.1538C43.6611 10.4769 43.4457 9.93333 43.0149 9.52308C42.6046 9.09231 42.0713 8.87692 41.4149 8.87692H40.1534Z" fill="#49B8A4"/>
<path d="M59.7406 17.3692C60.3355 17.3692 60.7663 17.1949 61.0329 16.8462C61.3201 16.4769 61.5355 16.0359 61.6791 15.5231H65.556C65.474 16.2821 65.2791 17 64.9714 17.6769C64.6637 18.3333 64.2534 18.9077 63.7406 19.4C63.2483 19.8923 62.6534 20.2821 61.956 20.5692C61.2791 20.8564 60.5509 21 59.7714 21H57.1252C56.3047 21 55.5252 20.8462 54.7868 20.5385C54.0483 20.2103 53.4022 19.7692 52.8483 19.2154C52.2945 18.6615 51.8534 18.0154 51.5252 17.2769C51.2175 16.5385 51.0637 15.7487 51.0637 14.9077V6.16923C51.0637 5.32821 51.2175 4.53846 51.5252 3.8C51.8534 3.04103 52.2945 2.38462 52.8483 1.83077C53.4022 1.27692 54.0483 0.846153 54.7868 0.538461C55.5252 0.210256 56.3047 0.0461528 57.1252 0.0461528H59.7714C60.5714 0.0461528 61.3099 0.189743 61.9868 0.476922C62.6637 0.764101 63.2483 1.1641 63.7406 1.67692C64.2534 2.16923 64.6637 2.75385 64.9714 3.43077C65.2791 4.10769 65.474 4.8359 65.556 5.61539H61.6791C61.5765 5.08205 61.3816 4.63077 61.0945 4.26154C60.8073 3.89231 60.356 3.70769 59.7406 3.70769H57.156C56.4381 3.70769 55.8637 3.9641 55.4329 4.47692C55.0227 4.98974 54.8175 5.61538 54.8175 6.35385V14.6923C54.8175 15.4308 55.0227 16.0667 55.4329 16.6C55.8637 17.1128 56.4381 17.3692 57.156 17.3692H59.7406ZM69.0577 10.2923C69.1192 9.6359 69.2628 9.01026 69.4885 8.41538C69.7346 7.82051 70.0833 7.29744 70.5346 6.84615C70.9859 6.39487 71.55 6.0359 72.2269 5.76923C72.9038 5.48205 73.6833 5.33846 74.5654 5.33846H76.4115C77.3346 5.33846 78.1346 5.49231 78.8115 5.8C79.509 6.10769 80.0833 6.51795 80.5346 7.03077C80.9859 7.52308 81.3244 8.09744 81.55 8.75385C81.7756 9.38974 81.8885 10.0359 81.8885 10.6923V21H73.15C72.4731 21 71.8679 20.8769 71.3346 20.6308C70.8013 20.3641 70.35 20.0256 69.9808 19.6154C69.632 19.1846 69.3654 18.6821 69.1808 18.1077C69.0167 17.5333 68.9346 16.9179 68.9346 16.2615C68.9346 15.6256 69.0269 15.0308 69.2115 14.4769C69.3962 13.9231 69.6628 13.4513 70.0115 13.0615C70.3603 12.6513 70.791 12.3333 71.3038 12.1077C71.8372 11.8615 72.432 11.7385 73.0885 11.7385H78.35V11.4308C78.35 11.0615 78.3192 10.7231 78.2577 10.4154C78.1962 10.0872 78.0833 9.81026 77.9192 9.58462C77.7551 9.35897 77.509 9.18462 77.1808 9.06154C76.8526 8.91795 76.4115 8.84615 75.8577 8.84615H75.0885C74.2679 8.84615 73.6833 8.96923 73.3346 9.21538C72.9859 9.44103 72.75 9.8 72.6269 10.2923H69.0577ZM72.2269 16.2615C72.2269 16.7949 72.3295 17.1949 72.5346 17.4615C72.7603 17.7077 73.0064 17.8308 73.2731 17.8308H78.35V14.6923H73.2731C73.0064 14.6923 72.7603 14.8256 72.5346 15.0923C72.3295 15.359 72.2269 15.7487 72.2269 16.2615ZM86.0231 0.0461528H89.6538V21H86.0231V0.0461528ZM100.51 17.4615C101.002 17.4615 101.423 17.3487 101.771 17.1231C102.12 16.8769 102.346 16.5487 102.448 16.1385H106.11C105.925 17.6154 105.351 18.7949 104.387 19.6769C103.423 20.559 102.13 21 100.51 21H99.2483C98.3663 21 97.5663 20.8667 96.8483 20.6C96.1304 20.3333 95.5252 19.9538 95.0329 19.4615C94.5406 18.9487 94.1509 18.3436 93.8637 17.6462C93.597 16.9282 93.4637 16.1385 93.4637 15.2769V11.0615C93.4637 10.1795 93.597 9.38974 93.8637 8.69231C94.1509 7.99487 94.5406 7.4 95.0329 6.90769C95.5252 6.41538 96.1304 6.0359 96.8483 5.76923C97.5663 5.48205 98.3663 5.33846 99.2483 5.33846H100.51C102.171 5.33846 103.484 5.77949 104.448 6.66154C105.412 7.54359 105.966 8.75385 106.11 10.2923H102.479C102.356 9.84103 102.13 9.49231 101.802 9.24615C101.474 9 101.043 8.87692 100.51 8.87692H99.2483C98.5919 8.87692 98.0483 9.09231 97.6175 9.52308C97.2073 9.93333 97.0022 10.4769 97.0022 11.1538V15.1538C97.0022 15.8308 97.2073 16.3846 97.6175 16.8154C98.0483 17.2462 98.5919 17.4615 99.2483 17.4615H100.51Z" fill="#FF964A"/>
</svg>
