<svg width="70" height="67" viewBox="0 0 70 67" fill="none" xmlns="http://www.w3.org/2000/svg">
<path d="M58.1003 12.7554V17.6588H15.9313C14.6309 17.6588 13.3837 17.1422 12.4641 16.2226C11.5446 15.3031 11.028 14.0559 11.028 12.7554C11.028 11.455 11.5446 10.2078 12.4641 9.28821C13.3837 8.36865 14.6309 7.85205 15.9313 7.85205H53.1969C54.4974 7.85205 55.7446 8.36865 56.6642 9.28821C57.5837 10.2078 58.1003 11.455 58.1003 12.7554Z" fill="#49B8A4"/>
<path d="M46.3322 36.2916C46.3348 33.9516 47.2655 31.7081 48.9202 30.0535C50.5748 28.3988 52.8183 27.4681 55.1583 27.4655H63.9844V26.4848C63.9807 25.1855 63.463 23.9404 62.5442 23.0216C61.6254 22.1029 60.3803 21.5851 59.081 21.5815H15.9313C15.6019 21.5806 15.2734 21.5471 14.9507 21.4814C13.55 21.3388 12.2043 20.8605 11.028 20.0869V45.1176C11.028 47.7186 12.0612 50.2129 13.9003 52.0521C15.7394 53.8912 18.2338 54.9244 20.8347 54.9244H54.1776C56.7785 54.9244 59.2729 53.8912 61.112 52.0521C62.9512 50.2129 63.9844 47.7186 63.9844 45.1176H55.1583C52.8183 45.115 50.5748 44.1843 48.9202 42.5297C47.2655 40.875 46.3348 38.6316 46.3322 36.2916V36.2916Z" fill="#49B8A4"/>
<path d="M55.1583 31.3882H63.9844C64.5046 31.3882 65.0034 31.5948 65.3713 31.9626C65.7391 32.3305 65.9457 32.8294 65.9457 33.3495V39.2336C65.9457 39.7538 65.7391 40.2526 65.3713 40.6205C65.0034 40.9883 64.5046 41.1949 63.9844 41.1949H55.1583C53.8579 41.1949 52.6107 40.6783 51.6911 39.7588C50.7715 38.8392 50.2549 37.592 50.2549 36.2916C50.2549 34.9911 50.7715 33.7439 51.6911 32.8243C52.6107 31.9048 53.8579 31.3882 55.1583 31.3882Z" fill="#49B8A4"/>
<circle cx="17.5658" cy="48.8222" r="15.4342" fill="white" stroke="#49B8A4" stroke-width="4"/>
<g clip-path="url(#clip0_208_41)">
<path fill-rule="evenodd" clip-rule="evenodd" d="M23.5433 49.8188H18.5621V54.8C18.5621 55.3479 18.1138 55.7962 17.5658 55.7962C17.0179 55.7962 16.5696 55.3479 16.5696 54.8V49.8188H11.5884C11.0405 49.8188 10.5922 49.3705 10.5922 48.8226C10.5922 48.2746 11.0405 47.8263 11.5884 47.8263H16.5696V42.8451C16.5696 42.2972 17.0179 41.8489 17.5658 41.8489C18.1138 41.8489 18.5621 42.2972 18.5621 42.8451V47.8263H23.5433C24.0912 47.8263 24.5395 48.2746 24.5395 48.8226C24.5395 49.3705 24.0912 49.8188 23.5433 49.8188Z" fill="#49B8A4"/>
</g>
<defs>
<clipPath id="clip0_208_41">
<rect width="13.9474" height="13.9474" fill="white" transform="translate(10.5922 41.8489)"/>
</clipPath>
</defs>
</svg>
