<svg width="25" height="25" viewBox="0 0 25 25" marginLeft="-2px" marginRight="-4px" fill="none" xmlns="http://www.w3.org/2000/svg">
<path d="M20.8789 11.6367C20.8773 11.4809 20.8141 11.332 20.7031 11.2226L19.0235 9.71872L12.8907 4.24997C12.7832 4.15389 12.6442 4.10077 12.5 4.10077C12.3559 4.10077 12.2168 4.15389 12.1094 4.24997L5.99221 9.71872L4.2969 11.2226C4.18661 11.3244 4.11834 11.4637 4.1055 11.6133C4.09562 11.7553 4.13713 11.8962 4.22246 12.0102C4.30779 12.1242 4.43125 12.2038 4.57034 12.2343C4.57034 12.2539 5.74221 12.2343 5.78128 12.2343V20.3125C5.78128 20.4679 5.84301 20.6169 5.95289 20.7268C6.06278 20.8367 6.21181 20.8984 6.36721 20.8984H10.3321C10.4106 20.901 10.4889 20.8878 10.5623 20.8595C10.6356 20.8313 10.7026 20.7885 10.7591 20.7339C10.8156 20.6792 10.8605 20.6137 10.8911 20.5413C10.9218 20.4689 10.9376 20.3911 10.9375 20.3125V15.4531H14.1016V20.3125C14.1016 20.4679 14.1633 20.6169 14.2732 20.7268C14.3831 20.8367 14.5321 20.8984 14.6875 20.8984H18.6172C18.7726 20.8984 18.9216 20.8367 19.0315 20.7268C19.1414 20.6169 19.2031 20.4679 19.2031 20.3125V12.2461C19.2578 12.2461 20.4102 12.2461 20.4141 12.2461C20.5515 12.2165 20.6737 12.1389 20.759 12.0272C20.8442 11.9155 20.8867 11.777 20.8789 11.6367Z" fill="white"/>
<circle cx="7" cy="19" r="4.5" fill="white" stroke="#4C9D8F"/>
<g clip-path="url(#clip0_141_373)">
<path fill-rule="evenodd" clip-rule="evenodd" d="M8.71429 19.2857H7.28571V20.7143C7.28571 20.8714 7.15714 21 7 21C6.84286 21 6.71429 20.8714 6.71429 20.7143V19.2857H5.28571C5.12857 19.2857 5 19.1571 5 19C5 18.8429 5.12857 18.7143 5.28571 18.7143H6.71429V17.2857C6.71429 17.1286 6.84286 17 7 17C7.15714 17 7.28571 17.1286 7.28571 17.2857V18.7143H8.71429C8.87143 18.7143 9 18.8429 9 19C9 19.1571 8.87143 19.2857 8.71429 19.2857Z" fill="#4C9D8F"/>
</g>
<defs>
<clipPath id="clip0_141_373">
<rect width="4" height="4" fill="white" transform="translate(5 17)"/>
</clipPath>
</defs>
</svg>
