<svg width="18" height="21" viewBox="0 0 18 21" fill="none" xmlns="http://www.w3.org/2000/svg">
<g clip-path="url(#clip0_145_2)">
<path fill-rule="evenodd" clip-rule="evenodd" d="M10 8.5C12.21 8.5 14 6.59812 14 4.25C14 1.90188 12.21 0 10 0C7.79 0 6 1.90188 6 4.25C6 6.59812 7.79 8.5 10 8.5ZM10 10.625C7.33 10.625 2 12.0487 2 14.875V15.9375C2 16.5219 2.45 17 3 17H17C17.55 17 18 16.5219 18 15.9375V14.875C18 12.0487 12.67 10.625 10 10.625Z" fill="white"/>
</g>
<circle cx="5" cy="16" r="4.5" fill="white" stroke="#4C9D8F"/>
<g clip-path="url(#clip1_145_2)">
<path fill-rule="evenodd" clip-rule="evenodd" d="M6.71429 16.2857H5.28571V17.7143C5.28571 17.8714 5.15714 18 5 18C4.84286 18 4.71429 17.8714 4.71429 17.7143V16.2857H3.28571C3.12857 16.2857 3 16.1571 3 16C3 15.8429 3.12857 15.7143 3.28571 15.7143H4.71429V14.2857C4.71429 14.1286 4.84286 14 5 14C5.15714 14 5.28571 14.1286 5.28571 14.2857V15.7143H6.71429C6.87143 15.7143 7 15.8429 7 16C7 16.1571 6.87143 16.2857 6.71429 16.2857Z" fill="#4C9D8F"/>
</g>
<defs>
<clipPath id="clip0_145_2">
<rect width="16" height="17" fill="white" transform="translate(2)"/>
</clipPath>
<clipPath id="clip1_145_2">
<rect width="4" height="4" fill="white" transform="translate(3 14)"/>
</clipPath>
</defs>
</svg>
