<svg width="19" height="19" viewBox="0 0 19 19" fill="none" xmlns="http://www.w3.org/2000/svg">
<g clip-path="url(#clip0_18_246)">
<path d="M9.46846 17.3903H2.3671C1.93154 17.3903 1.57808 17.0368 1.57808 16.6013V2.39863C1.57808 1.96307 1.93158 1.60961 2.3671 1.60961H9.46846C9.90479 1.60961 10.2575 1.25692 10.2575 0.820588C10.2575 0.384256 9.90479 0.0314941 9.46846 0.0314941H2.3671C1.06203 0.0314941 0 1.09356 0 2.39863V16.6013C0 17.9063 1.06203 18.9684 2.3671 18.9684H9.46846C9.90479 18.9684 10.2575 18.6157 10.2575 18.1794C10.2575 17.743 9.90479 17.3903 9.46846 17.3903Z" fill="white"/>
<path d="M18.7649 8.93819L13.9675 4.20397C13.6582 3.89781 13.158 3.90178 12.8518 4.21187C12.5457 4.52196 12.5488 5.02141 12.8598 5.32756L16.2881 8.71093H7.10134C6.665 8.71093 6.31232 9.06362 6.31232 9.49995C6.31232 9.93628 6.665 10.289 7.10134 10.289H16.2881L12.8598 13.6724C12.5489 13.9785 12.5465 14.478 12.8518 14.7881C13.0065 14.9443 13.2101 15.0232 13.4136 15.0232C13.6141 15.0232 13.8145 14.9475 13.9675 14.7959L18.7649 10.0617C18.9148 9.91339 19 9.71136 19 9.49991C19 9.28854 18.9156 9.08733 18.7649 8.93819Z" fill="white"/>
</g>
<defs>
<clipPath id="clip0_18_246">
<rect width="19" height="19" fill="white"/>
</clipPath>
</defs>
</svg>
