<svg width="35" height="35" viewBox="0 0 35 35" fill="none" xmlns="http://www.w3.org/2000/svg">
<rect width="15.5556" height="15.5556" fill="white"/>
<rect x="19.4445" width="15.5556" height="15.5556" fill="#FF964A"/>
<rect x="19.4445" y="19.4445" width="15.5556" height="15.5556" fill="white"/>
<rect y="19.4445" width="15.5556" height="15.5556" fill="white"/>
<path d="M28.2347 6.98268C28.595 6.98268 28.9316 7.05379 29.2444 7.19601C29.5668 7.33823 29.8465 7.52786 30.0836 7.7649C30.3206 8.00194 30.5055 8.28164 30.6382 8.60401C30.7804 8.92638 30.8516 9.27246 30.8516 9.64223C30.8516 10.0025 30.7804 10.3439 30.6382 10.6662C30.5055 10.9791 30.3159 11.2588 30.0693 11.5053C29.8323 11.7424 29.5573 11.932 29.2444 12.0742C28.9316 12.207 28.595 12.2733 28.2347 12.2733H28.1778H27.936V13.0271H26.5138V12.2876H24.0533V10.78H26.5138V8.49023H26.2293C25.8596 8.49023 25.5135 8.41912 25.1911 8.2769C24.8782 8.13468 24.6033 7.94505 24.3662 7.70801C24.1292 7.47097 23.9396 7.19127 23.7973 6.8689C23.6646 6.54653 23.5982 6.2052 23.5982 5.8449C23.5982 5.47512 23.6646 5.13379 23.7973 4.8209C23.9396 4.49853 24.1292 4.21883 24.3662 3.98179C24.6033 3.74475 24.8782 3.55512 25.1911 3.4129C25.5135 3.27068 25.8596 3.19957 26.2293 3.19957H26.5138V2.44579H27.936V3.19957H29.6853V4.70712H27.936V6.98268H28.2347ZM27.936 8.49023V10.78H28.2489C28.5523 10.761 28.8083 10.6473 29.0169 10.4387C29.235 10.2206 29.344 9.95512 29.344 9.64223C29.344 9.48105 29.3108 9.32934 29.2444 9.18712C29.1876 9.0449 29.107 8.92638 29.0027 8.83157C28.9079 8.72727 28.7893 8.64668 28.6471 8.58979C28.5144 8.52342 28.3674 8.49023 28.2062 8.49023H27.936ZM25.1058 5.8449C25.1058 6.14831 25.2101 6.41379 25.4187 6.64134C25.6273 6.85942 25.888 6.9732 26.2009 6.98268H26.5138V4.70712H26.2436C25.9212 4.70712 25.651 4.81616 25.4329 5.03423C25.2148 5.25231 25.1058 5.52253 25.1058 5.8449Z" fill="white"/>
<rect x="3.5" y="7" width="8.55556" height="1.55556" fill="#49B8A4"/>
<rect x="23.7222" y="26.4445" width="7.77778" height="1.55556" fill="#49B8A4"/>
<rect x="7" y="12.0555" width="8.55556" height="1.55556" transform="rotate(-90 7 12.0555)" fill="#49B8A4"/>
<rect x="3.98492" y="29.8346" width="9.33333" height="1.55556" transform="rotate(-45 3.98492 29.8346)" fill="#49B8A4"/>
<rect x="4.97095" y="23.2349" width="9.33333" height="1.55556" transform="rotate(45 4.97095 23.2349)" fill="#49B8A4"/>
<circle cx="27.6111" cy="24.1111" r="1.16667" fill="#49B8A4"/>
<circle cx="27.6111" cy="30.3333" r="1.16667" fill="#49B8A4"/>
</svg>
