<svg width="132" height="181" viewBox="0 0 132 181" fill="none" xmlns="http://www.w3.org/2000/svg">
<rect x="1.45056" width="58.022" height="58.022" fill="#49B8A4"/>
<rect x="73.978" width="58.022" height="58.022" fill="#FF964A"/>
<rect x="73.978" y="72.5275" width="58.022" height="58.022" fill="#49B8A4"/>
<rect x="1.45056" y="72.5275" width="58.022" height="58.022" fill="#49B8A4"/>
<path d="M106.294 24.7907C107.469 24.7907 108.568 25.0228 109.589 25.4869C110.641 25.9511 111.554 26.57 112.328 27.3436C113.101 28.1173 113.705 29.0301 114.138 30.0823C114.602 31.1344 114.834 32.2639 114.834 33.4708C114.834 34.6467 114.602 35.7607 114.138 36.8128C113.705 37.834 113.086 38.7469 112.281 39.5515C111.508 40.3251 110.61 40.944 109.589 41.4082C108.568 41.8414 107.469 42.058 106.294 42.058H106.108H105.319V44.5182H100.677V42.1044H92.6468V37.1842H100.677V29.7109H99.7487C98.5418 29.7109 97.4123 29.4789 96.3602 29.0147C95.339 28.5505 94.4416 27.9316 93.668 27.158C92.8943 26.3843 92.2754 25.4715 91.8113 24.4193C91.378 23.3672 91.1614 22.2532 91.1614 21.0773C91.1614 19.8704 91.378 18.7564 91.8113 17.7352C92.2754 16.6831 92.8943 15.7702 93.668 14.9966C94.4416 14.2229 95.339 13.604 96.3602 13.1399C97.4123 12.6757 98.5418 12.4436 99.7487 12.4436H100.677V9.98347H105.319V12.4436H111.028V17.3639H105.319V24.7907H106.294ZM105.319 29.7109V37.1842H106.34C107.33 37.1223 108.166 36.7509 108.847 36.0702C109.558 35.3584 109.914 34.492 109.914 33.4708C109.914 32.9447 109.806 32.4496 109.589 31.9854C109.404 31.5212 109.14 31.1344 108.8 30.825C108.491 30.4846 108.104 30.2215 107.64 30.0359C107.206 29.8192 106.727 29.7109 106.201 29.7109H105.319ZM96.0817 21.0773C96.0817 22.0675 96.4221 22.934 97.1029 23.6767C97.7837 24.3884 98.6346 24.7597 99.6558 24.7907H100.677V17.3639H99.7951C98.743 17.3639 97.861 17.7197 97.1493 18.4315C96.4375 19.1432 96.0817 20.0251 96.0817 21.0773Z" fill="white"/>
<path d="M6.78857 164.311H19.5737V168.648H1.92343V142.965H19.5737V147.302H6.78857V153.638H19.5737V157.937H6.78857V164.311ZM32.8986 164.311C33.5021 164.311 34.0175 164.173 34.4449 163.896C34.8724 163.595 35.1489 163.192 35.2746 162.689H39.7626C39.5364 164.5 38.8324 165.945 37.6506 167.027C36.4689 168.108 34.8849 168.648 32.8986 168.648H31.3524C30.2712 168.648 29.2906 168.485 28.4106 168.158C27.5306 167.831 26.7889 167.366 26.1855 166.763C25.5821 166.134 25.1044 165.392 24.7524 164.537C24.4255 163.657 24.2621 162.689 24.2621 161.633V156.467C24.2621 155.385 24.4255 154.417 24.7524 153.563C25.1044 152.708 25.5821 151.979 26.1855 151.375C26.7889 150.772 27.5306 150.307 28.4106 149.98C29.2906 149.628 30.2712 149.452 31.3524 149.452H32.8986C34.9352 149.452 36.5444 149.992 37.7261 151.073C38.9078 152.155 39.5866 153.638 39.7626 155.524H35.3124C35.1615 154.971 34.8849 154.543 34.4826 154.241C34.0804 153.94 33.5524 153.789 32.8986 153.789H31.3524C30.5478 153.789 29.8815 154.053 29.3535 154.581C28.8506 155.084 28.5992 155.75 28.5992 156.58V161.483C28.5992 162.312 28.8506 162.991 29.3535 163.519C29.8815 164.047 30.5478 164.311 31.3524 164.311H32.8986ZM51.9886 149.452C53.0948 149.452 54.0754 149.628 54.9303 149.98C55.8103 150.307 56.552 150.772 57.1554 151.375C57.784 151.979 58.2617 152.708 58.5886 153.563C58.9154 154.417 59.0789 155.385 59.0789 156.467V161.633C59.0789 162.689 58.9154 163.657 58.5886 164.537C58.2617 165.392 57.784 166.134 57.1554 166.763C56.552 167.366 55.8103 167.831 54.9303 168.158C54.0754 168.485 53.0948 168.648 51.9886 168.648H50.4423C49.3611 168.648 48.3806 168.485 47.5006 168.158C46.6206 167.831 45.8663 167.366 45.2377 166.763C44.6343 166.134 44.1691 165.392 43.8423 164.537C43.5406 163.657 43.3897 162.689 43.3897 161.633V156.467C43.3897 155.385 43.5406 154.417 43.8423 153.563C44.1691 152.708 44.6343 151.979 45.2377 151.375C45.8663 150.772 46.6206 150.307 47.5006 149.98C48.3806 149.628 49.3611 149.452 50.4423 149.452H51.9886ZM50.4423 153.789C49.6628 153.789 48.9966 154.053 48.4434 154.581C47.9154 155.084 47.6514 155.75 47.6514 156.58V161.483C47.6514 162.312 47.9154 162.991 48.4434 163.519C48.9966 164.047 49.6628 164.311 50.4423 164.311H51.9886C52.7931 164.311 53.4468 164.047 53.9497 163.519C54.4777 162.991 54.7417 162.312 54.7417 161.483V156.58C54.7417 155.75 54.4777 155.084 53.9497 154.581C53.4468 154.053 52.7931 153.789 51.9886 153.789H50.4423Z" fill="#49B8A4"/>
<path d="M74.4507 164.198C75.1798 164.198 75.7078 163.984 76.0347 163.557C76.3867 163.104 76.6507 162.564 76.8267 161.935H81.5787C81.4781 162.865 81.2392 163.745 80.8621 164.575C80.4849 165.38 79.9821 166.084 79.3535 166.687C78.7501 167.291 78.0209 167.768 77.1661 168.12C76.3364 168.472 75.4438 168.648 74.4884 168.648H71.2449C70.2392 168.648 69.2838 168.46 68.3787 168.083C67.4735 167.68 66.6815 167.14 66.0027 166.461C65.3238 165.782 64.7832 164.99 64.3809 164.085C64.0038 163.18 63.8152 162.212 63.8152 161.181V150.47C63.8152 149.439 64.0038 148.471 64.3809 147.566C64.7832 146.636 65.3238 145.831 66.0027 145.152C66.6815 144.473 67.4735 143.945 68.3787 143.568C69.2838 143.166 70.2392 142.965 71.2449 142.965H74.4884C75.4689 142.965 76.3741 143.141 77.2038 143.493C78.0335 143.845 78.7501 144.335 79.3535 144.964C79.9821 145.567 80.4849 146.284 80.8621 147.113C81.2392 147.943 81.4781 148.836 81.5787 149.791H76.8267C76.7009 149.137 76.4621 148.584 76.1101 148.132C75.7581 147.679 75.2049 147.453 74.4507 147.453H71.2827C70.4027 147.453 69.6987 147.767 69.1707 148.396C68.6678 149.024 68.4164 149.791 68.4164 150.696V160.917C68.4164 161.822 68.6678 162.601 69.1707 163.255C69.6987 163.884 70.4027 164.198 71.2827 164.198H74.4507ZM85.8707 155.524C85.9462 154.719 86.1222 153.952 86.3987 153.223C86.7004 152.494 87.1279 151.853 87.681 151.3C88.2342 150.747 88.9256 150.307 89.7553 149.98C90.585 149.628 91.5404 149.452 92.6216 149.452H94.8844C96.0159 149.452 96.9964 149.64 97.8262 150.017C98.681 150.395 99.385 150.897 99.9382 151.526C100.491 152.129 100.906 152.833 101.183 153.638C101.459 154.417 101.598 155.209 101.598 156.014V168.648H90.8867C90.057 168.648 89.3153 168.497 88.6616 168.196C88.0079 167.869 87.4547 167.454 87.0022 166.951C86.5747 166.423 86.2479 165.807 86.0216 165.103C85.8204 164.399 85.7199 163.645 85.7199 162.84C85.7199 162.061 85.833 161.332 86.0593 160.653C86.2856 159.974 86.6124 159.396 87.0399 158.918C87.4673 158.415 87.9953 158.025 88.6239 157.749C89.2776 157.447 90.0067 157.296 90.8113 157.296H97.2604V156.919C97.2604 156.467 97.2227 156.052 97.1473 155.675C97.0719 155.272 96.9336 154.933 96.7324 154.656C96.5313 154.38 96.2296 154.166 95.8273 154.015C95.425 153.839 94.8844 153.751 94.2056 153.751H93.2627C92.257 153.751 91.5404 153.902 91.113 154.204C90.6856 154.48 90.3964 154.92 90.2456 155.524H85.8707ZM89.7553 162.84C89.7553 163.494 89.881 163.984 90.1324 164.311C90.409 164.613 90.7107 164.764 91.0376 164.764H97.2604V160.917H91.0376C90.7107 160.917 90.409 161.08 90.1324 161.407C89.881 161.734 89.7553 162.212 89.7553 162.84ZM106.665 142.965H111.116V168.648H106.665V142.965ZM124.422 164.311C125.026 164.311 125.541 164.173 125.968 163.896C126.396 163.595 126.672 163.192 126.798 162.689H131.286C131.06 164.5 130.356 165.945 129.174 167.027C127.992 168.108 126.408 168.648 124.422 168.648H122.876C121.795 168.648 120.814 168.485 119.934 168.158C119.054 167.831 118.312 167.366 117.709 166.763C117.106 166.134 116.628 165.392 116.276 164.537C115.949 163.657 115.786 162.689 115.786 161.633V156.467C115.786 155.385 115.949 154.417 116.276 153.563C116.628 152.708 117.106 151.979 117.709 151.375C118.312 150.772 119.054 150.307 119.934 149.98C120.814 149.628 121.795 149.452 122.876 149.452H124.422C126.459 149.452 128.068 149.992 129.25 151.073C130.431 152.155 131.11 153.638 131.286 155.524H126.836C126.685 154.971 126.408 154.543 126.006 154.241C125.604 153.94 125.076 153.789 124.422 153.789H122.876C122.071 153.789 121.405 154.053 120.877 154.581C120.374 155.084 120.123 155.75 120.123 156.58V161.483C120.123 162.312 120.374 162.991 120.877 163.519C121.405 164.047 122.071 164.311 122.876 164.311H124.422Z" fill="#FF964A"/>
<rect x="14.5055" y="26.1099" width="31.9121" height="5.8022" fill="white"/>
<rect x="89.9341" y="98.6374" width="29.011" height="5.8022" fill="white"/>
<rect x="27.5604" y="44.967" width="31.9121" height="5.8022" transform="rotate(-90 27.5604 44.967)" fill="white"/>
<rect x="16.3143" y="111.283" width="34.8132" height="5.8022" transform="rotate(-45 16.3143 111.283)" fill="white"/>
<rect x="19.9922" y="86.6659" width="34.8132" height="5.8022" transform="rotate(45 19.9922 86.6659)" fill="white"/>
<circle cx="104.44" cy="89.9341" r="4.35165" fill="white"/>
<circle cx="104.44" cy="113.143" r="4.35165" fill="white"/>
</svg>
