<svg width="130" height="105" viewBox="0 0 130 105" fill="none" xmlns="http://www.w3.org/2000/svg">
<g clip-path="url(#clip0_12_41)">
<path d="M74.0586 92.4431C73.1597 91.1882 71.9429 90.27 70.413 89.9264C69.079 89.6267 67.7073 89.6778 66.3512 89.6882L49.2047 89.82C47.7362 89.8313 46.3282 91.0996 46.3965 92.6197C46.4642 94.1269 47.6306 95.4315 49.2047 95.4194C54.2275 95.3808 59.2502 95.3421 64.2729 95.3035C65.457 95.2944 66.6418 95.2731 67.8261 95.277C68.092 95.2779 68.3568 95.2919 68.6225 95.2949C68.6868 95.2956 68.7333 95.295 68.7661 95.2936C68.7743 95.2961 68.7813 95.2984 68.792 95.3013C68.9306 95.3393 69.0727 95.3654 69.2122 95.4015C69.1633 95.4029 69.3026 95.4895 69.3725 95.5189C69.3821 95.5378 69.4026 95.5713 69.4368 95.623C69.4845 95.7122 69.6258 95.9832 69.6317 95.9747C69.844 96.5099 70.0191 97.0591 70.1559 97.6183C70.4823 98.8514 70.554 99.1091 70.6009 100.266C70.6603 101.727 71.8501 103.135 73.4092 103.066C74.8798 103 76.2811 101.833 76.2174 100.266C76.1102 97.6249 75.6451 94.658 74.0586 92.4431Z" fill="#E6E6E6"/>
<path d="M50.2126 98.7609C49.8906 96.8152 49.5747 94.8682 49.2464 92.9236C48.9132 90.9509 48.2329 89.1444 46.693 87.8496C46.2815 87.5037 45.8549 87.1807 45.4265 86.8588C45.2758 86.7456 45.1254 86.6322 44.9766 86.5166C44.9677 86.5096 44.962 86.5053 44.9543 86.4993C44.9379 86.4853 44.9183 86.4686 44.8919 86.4463C44.2501 85.9048 43.6299 85.3392 43.0392 84.738C42.5146 84.204 42.013 83.6473 41.5342 83.0678C41.4146 82.9231 41.2965 82.777 41.1799 82.6297C41.1599 82.6044 41.0519 82.4652 40.9808 82.3744C40.9146 82.2836 40.7937 82.1195 40.7734 82.0909C40.6372 81.8989 40.5034 81.7051 40.3721 81.5096C39.4777 80.1736 38.7032 78.7615 38.0576 77.2899C37.9936 77.1439 37.9311 76.9971 37.8701 76.8494C37.8537 76.8043 37.8325 76.7465 37.8044 76.6694C37.6743 76.3127 37.5445 75.9565 37.4255 75.5956C37.1728 74.8291 36.9555 74.0512 36.7737 73.262C36.6838 72.8724 36.6029 72.4807 36.5309 72.0871C36.4938 71.8846 36.4591 71.6818 36.4268 71.4785C36.4215 71.4448 36.3899 71.2255 36.3713 71.1016C36.3576 70.977 36.3321 70.7566 36.3287 70.7225C36.3081 70.5176 36.2898 70.3125 36.2739 70.1072C36.238 69.6453 36.2137 69.1825 36.2011 68.719C36.1795 67.8953 36.1943 67.0716 36.2455 66.248C36.2746 65.7853 36.3161 65.3237 36.3671 64.863C36.3702 64.8347 36.3726 64.8122 36.3749 64.7919C36.3779 64.7713 36.3815 64.7479 36.3858 64.7189C36.4236 64.4643 36.4634 64.21 36.5079 63.9566C36.6763 62.9943 36.8954 62.0414 37.1642 61.102C37.2914 60.6578 37.4297 60.2171 37.5789 59.78C37.6454 59.586 37.714 59.3927 37.7847 59.2002C37.7801 59.2126 37.9922 58.6725 37.995 58.6543C38.8366 56.672 40.2131 54.8648 40.215 52.6129C40.2163 51.0882 38.9225 49.6277 37.4068 49.6982C36.6511 49.7265 35.936 50.0463 35.4121 50.59C34.8882 51.1337 34.5965 51.859 34.5985 52.6129C34.5985 52.6471 34.5984 52.6763 34.5983 52.7047C34.5841 52.7522 34.5723 52.7918 34.5617 52.8268C34.3976 53.1823 34.1965 53.5202 34.0164 53.8669C33.5231 54.8159 33.102 55.7961 32.7021 56.7906C32.0473 58.4101 31.5461 60.0872 31.205 61.7999C30.4637 65.5526 30.4062 69.4077 31.0352 73.1807C32.124 79.7971 35.7147 86.1308 40.7066 90.3881C41.1398 90.7575 41.5836 91.1145 42.0315 91.4643C42.2169 91.6091 42.4038 91.7511 42.5917 91.8923C42.6805 91.959 43.0483 92.2482 42.8865 92.1081C43.2344 92.4041 43.3809 92.5531 43.4703 92.7712C43.4832 92.8215 43.5009 92.8898 43.5248 92.9831C43.5878 93.229 43.6476 93.4743 43.6973 93.7237C44.1318 95.9024 44.4338 98.1177 44.7968 100.311C45.0462 101.817 46.9068 102.798 48.2513 102.346C49.8162 101.821 50.4799 100.375 50.2126 98.7609Z" fill="#E6E6E6"/>
<path d="M74.3427 104.412C73.1633 104.415 72.0309 103.951 71.1938 103.123C70.3567 102.295 69.8834 101.169 69.8776 99.9936V96.8C66.5237 97.1743 55.0389 97.0876 51.7469 96.5602V99.8659C51.738 101.041 51.2637 102.164 50.4273 102.992C49.5909 103.82 48.4602 104.284 47.2817 104.284C46.1033 104.284 44.9726 103.82 44.1362 102.992C43.2997 102.164 42.8254 101.041 42.8166 99.8659V93.3756C38.3577 90.9061 34.6407 87.2951 32.0489 82.9153C29.4572 78.5356 28.0848 73.5456 28.0733 68.4605C28.0733 59.7412 32.0369 51.6074 38.948 46.1447C43.4415 42.5808 48.901 40.4375 54.6255 39.99C55.4025 39.9293 56.1842 39.8985 56.9491 39.8985C59.6437 39.8985 71.801 40.3135 74.8513 41.1884L81.8066 34.3079C81.9089 34.2054 82.0394 34.1355 82.1817 34.1073C82.3239 34.079 82.4713 34.0936 82.6052 34.1492C82.7401 34.2027 82.8556 34.2956 82.9365 34.4158C83.0175 34.5359 83.0601 34.6776 83.0588 34.8223V35.9163L84.4131 34.5791C84.5152 34.4765 84.6456 34.4065 84.7878 34.3782C84.93 34.3499 85.0773 34.3645 85.2111 34.4202C85.3461 34.4736 85.4617 34.5666 85.5428 34.6867C85.6238 34.8069 85.6665 34.9487 85.6652 35.0935V47.3184C89.1553 50.4552 91.8154 54.4018 93.4096 58.8086C95.0039 63.2153 95.4832 67.9461 94.805 72.5816C94.1268 77.2172 92.312 81.6144 89.5216 85.3836C86.7312 89.1527 83.0512 92.1774 78.8078 94.1897V99.9936C78.802 101.169 78.3287 102.295 77.4916 103.123C76.6545 103.951 75.5221 104.415 74.3427 104.412ZM70.2286 96.4031V99.9936C70.2375 101.076 70.6748 102.11 71.4454 102.872C72.216 103.634 73.2573 104.062 74.3427 104.062C75.428 104.062 76.4694 103.634 77.24 102.872C78.0106 102.11 78.4479 101.076 78.4568 99.9936V93.9686L78.557 93.9212C83.3183 91.6687 87.3603 88.1448 90.2342 83.7406C93.8963 78.1205 95.4193 71.3791 94.5275 64.7364C93.6357 58.0938 90.3882 51.989 85.3725 47.5267L85.3142 47.4745V35.0935C85.3155 35.0183 85.2936 34.9445 85.2515 34.882C85.2093 34.8196 85.1491 34.7715 85.0787 34.7443C85.0088 34.7145 84.9314 34.7065 84.8569 34.7212C84.7823 34.736 84.7139 34.7729 84.6607 34.8271L82.7078 36.7555V34.8223C82.709 34.7471 82.6871 34.6733 82.645 34.6109C82.6029 34.5484 82.5426 34.5004 82.4723 34.4731C82.4022 34.4434 82.3247 34.4354 82.25 34.4503C82.1753 34.4652 82.1069 34.5022 82.0536 34.5565L74.9494 41.5843L74.8484 41.5528C72.0128 40.668 59.6641 40.2485 56.9491 40.2485C56.1933 40.2485 55.4208 40.2789 54.6531 40.339C48.9982 40.7809 43.605 42.8982 39.1661 46.4188C32.3395 51.8149 28.4243 59.8487 28.4243 68.4605C28.4359 73.5006 29.801 78.4457 32.3778 82.782C34.9545 87.1184 38.6488 90.6878 43.0771 93.1195L43.1676 93.1695V99.8659C43.1767 100.948 43.6141 101.982 44.3847 102.744C45.1552 103.506 46.1965 103.933 47.2817 103.933C48.3669 103.933 49.4082 103.506 50.1788 102.744C50.9494 101.982 51.3868 100.948 51.3958 99.8659V96.1413L51.6038 96.1803C54.5622 96.7352 67.0196 96.8227 70.0303 96.429L70.2286 96.4031Z" fill="#3F3D56"/>
<path d="M50.5481 20.8432L31.1115 26.6665C30.4932 26.8525 29.9744 27.2755 29.6688 27.8426C29.3632 28.4098 29.296 29.0746 29.4818 29.6912C29.6676 30.3077 30.0914 30.8255 30.6599 31.1307C31.2284 31.436 31.8952 31.5038 32.5139 31.3192L49.523 26.2221L49.8793 26.1153C49.9515 24.2848 50.4496 22.496 51.3344 20.8904C51.2233 20.8406 51.1047 20.8099 50.9833 20.7994C50.8368 20.7853 50.6889 20.8002 50.5481 20.8432Z" fill="#49B8A4"/>
<path d="M32.1777 32.5608C31.9197 32.5601 31.6684 32.4787 31.4594 32.3279C31.2503 32.1772 31.0941 31.9647 31.0127 31.7206L29.7973 28.0643C29.7465 27.9116 29.7264 27.7504 29.7381 27.59C29.7499 27.4295 29.7932 27.273 29.8656 27.1292C29.938 26.9855 30.0381 26.8574 30.1602 26.7522C30.2823 26.647 30.424 26.5668 30.5771 26.5163L46.3966 21.2896C46.5497 21.239 46.7114 21.2189 46.8723 21.2306C47.0332 21.2423 47.1902 21.2854 47.3344 21.3576C47.4786 21.4298 47.6071 21.5296 47.7126 21.6513C47.8181 21.7729 47.8985 21.9142 47.9493 22.0668L49.1647 25.7232C49.2658 26.024 49.2456 26.3521 49.1082 26.6382C48.9708 26.9243 48.7271 27.1458 48.4287 27.2559C48.4141 27.2614 48.3994 27.2665 48.3845 27.2714L32.5654 32.4979C32.4404 32.5394 32.3095 32.5607 32.1777 32.5608Z" fill="#2F2E41"/>
<path d="M61.8039 14.3497C58.6111 14.3509 55.544 15.5907 53.2519 17.8066C50.9598 20.0224 49.6225 23.0405 49.523 26.2221C49.5195 26.3463 49.5178 26.4723 49.5178 26.5983C49.5178 29.0208 50.2384 31.389 51.5884 33.4032C52.9384 35.4175 54.8572 36.9874 57.1022 37.9145C59.3472 38.8416 61.8175 39.0841 64.2008 38.6115C66.584 38.1389 68.7732 36.9723 70.4914 35.2593C72.2097 33.5464 73.3798 31.3639 73.8539 28.9879C74.3279 26.6119 74.0846 24.1491 73.1547 21.9109C72.2248 19.6728 70.6501 17.7598 68.6297 16.4139C66.6092 15.0681 64.2338 14.3497 61.8039 14.3497ZM61.8039 38.4969C58.6395 38.4936 55.6057 37.239 53.3682 35.0083C51.1306 32.7775 49.8721 29.753 49.8688 26.5983C49.8688 26.4356 49.8723 26.2746 49.8794 26.1153C49.9744 23.7846 50.7546 21.5331 52.1228 19.6408C53.4911 17.7485 55.3871 16.299 57.5751 15.4724C59.7632 14.6458 62.1466 14.4786 64.4291 14.9917C66.7117 15.5048 68.7926 16.6754 70.4131 18.358C72.0337 20.0407 73.1223 22.1611 73.5437 24.4557C73.9652 26.7502 73.7007 29.1176 72.7834 31.2636C71.866 33.4095 70.3362 35.2392 68.384 36.5253C66.4319 37.8114 64.1437 38.497 61.8039 38.4969Z" fill="#3F3D56"/>
<path d="M72.1593 26.5983C72.1593 29.3363 71.0683 31.9622 69.1262 33.8983C67.1842 35.8344 64.5503 36.9221 61.8039 36.9221C59.0574 36.9221 56.4235 35.8344 54.4815 33.8983C52.5395 31.9622 51.4485 29.3363 51.4485 26.5983C51.4485 26.2711 51.4642 25.9491 51.494 25.6306C51.7436 22.9881 53.0044 20.543 55.0147 18.8029C57.025 17.0627 59.6303 16.1614 62.2897 16.2859C64.9491 16.4104 67.4582 17.5513 69.296 19.4716C71.1339 21.3919 72.1593 23.9441 72.1593 26.5983Z" fill="#E6E6E6"/>
<path d="M64.8876 27.2842C64.6366 26.9552 64.3064 26.6946 63.9276 26.5265C63.4604 26.3302 62.9779 26.1722 62.4849 26.0541V23.2439C63.2427 23.3578 63.9534 23.6809 64.5366 24.1766L65.1088 22.9605C64.7797 22.6682 64.4019 22.4354 63.9925 22.2728C63.5387 22.0896 63.0623 21.9678 62.5761 21.9106V20.4862H61.251V21.9246C60.7393 21.9819 60.2457 22.1471 59.803 22.4093C59.4031 22.6452 59.0664 22.9742 58.8218 23.3682C58.5884 23.7526 58.4674 24.1944 58.4726 24.6438C58.4498 25.1307 58.5913 25.6112 58.8745 26.0086C59.1352 26.3526 59.4795 26.6248 59.8749 26.7995C60.3496 27.0016 60.8404 27.1638 61.3423 27.2842V29.9772C60.448 29.9099 59.5959 29.571 58.9008 29.006L58.3287 30.2239C58.7173 30.5442 59.1593 30.7941 59.6345 30.9623C60.1552 31.1481 60.6992 31.2611 61.251 31.2982V32.7103H62.5761V31.272C63.3122 31.1918 64.0024 30.8763 64.5437 30.3726C64.782 30.1447 64.9703 29.87 65.0966 29.5657C65.2229 29.2615 65.2844 28.9345 65.2773 28.6053C65.2993 28.1339 65.1621 27.6687 64.8876 27.2842ZM61.3423 25.7566C61.0195 25.659 60.7194 25.4985 60.4594 25.2842C60.3564 25.1928 60.275 25.0799 60.221 24.9534C60.167 24.8269 60.1417 24.6901 60.147 24.5528C60.1374 24.2411 60.2523 23.9384 60.4664 23.7111C60.7038 23.4727 61.0101 23.3142 61.3423 23.2579V25.7566ZM63.3168 29.4802C63.0929 29.7091 62.8014 29.8606 62.4849 29.9124V27.5957C62.7874 27.6766 63.0704 27.8176 63.3168 28.0104C63.4103 28.0899 63.4845 28.1894 63.534 28.3015C63.5835 28.4136 63.6071 28.5354 63.6029 28.6578C63.6151 28.9581 63.5129 29.2519 63.3168 29.4802Z" fill="#49B8A4"/>
<path d="M32.7418 47.3796C32.4705 47.3792 32.2069 47.2895 31.9919 47.1245C31.7769 46.9595 31.6225 46.7284 31.5527 46.467L30.891 43.97C30.8082 43.6562 30.8536 43.3224 31.0173 43.0419C31.181 42.7614 31.4496 42.557 31.7642 42.4737L52.6401 36.9741C52.9552 36.8922 53.2899 36.938 53.5712 37.1014C53.8524 37.2649 54.0573 37.5328 54.141 37.8465L54.7015 39.962L54.5965 39.9701C49.2425 40.3851 44.1197 42.3204 39.8343 45.5469L39.8039 45.5616L33.0535 47.3393C32.9518 47.3661 32.847 47.3796 32.7418 47.3796Z" fill="#2F2E41"/>
<path d="M29.2844 59.7133C26.8355 59.3526 24.4935 58.4698 22.4178 57.125C21.3895 56.4592 20.4376 55.683 19.5791 54.8103C18.7317 53.9486 17.9211 52.9693 17.5013 51.8218C17.0975 50.7601 17.1183 49.5843 17.5595 48.5375C17.9946 47.4971 18.8258 46.6712 19.8708 46.2408C20.9221 45.8229 22.1922 45.7782 23.2153 46.2359C23.7029 46.4489 24.1247 46.7875 24.4377 47.2168C24.5831 47.4147 24.6908 47.6376 24.7554 47.8744C24.8153 48.0889 24.8208 48.315 24.7713 48.5322C24.7113 48.749 24.6055 48.9505 24.461 49.1232C24.3164 49.2959 24.1366 49.4358 23.9334 49.5336C23.4862 49.7623 23.0017 49.9096 22.5026 49.9686C22.0006 50.0369 21.2794 50.099 20.8759 49.6972C20.7928 49.6178 20.7275 49.5217 20.6841 49.4154C20.6538 49.3339 20.6434 49.2465 20.6538 49.1602C20.648 49.1983 20.6782 49.0776 20.6765 49.0824C20.6701 49.1002 20.6425 49.1437 20.6817 49.0769C20.694 49.0549 20.7077 49.0337 20.7227 49.0134C20.7093 49.0306 20.68 49.0593 20.7323 49.0101C20.7756 48.9629 20.8311 48.9287 20.8928 48.9113C20.9171 48.9042 20.9417 48.8986 20.9661 48.892C21.028 48.8751 20.9044 48.8929 20.9677 48.8909C20.9922 48.8901 21.0169 48.8907 21.0413 48.8896C21.1034 48.8868 20.98 48.8727 21.0395 48.8876C21.0626 48.8934 21.0855 48.8991 21.1083 48.9062C21.1578 48.9218 21.0733 48.87 21.1068 48.9088C21.1461 48.9542 21.0655 48.8646 21.1102 48.9086C21.1325 48.9304 21.1534 48.9534 21.173 48.9776C21.2505 49.0538 21.355 49.0966 21.4639 49.0966C21.5728 49.0966 21.6773 49.0538 21.7548 48.9776C21.8297 48.8995 21.8715 48.7956 21.8715 48.6875C21.8715 48.5795 21.8297 48.4756 21.7548 48.3975C21.3491 47.8961 20.5478 48.02 20.1374 48.4438C19.614 48.9842 19.8213 49.8407 20.3304 50.3122C20.9067 50.846 21.723 50.8831 22.4644 50.7936C23.0909 50.7338 23.7015 50.5617 24.2668 50.2858C24.8284 50.0107 25.2677 49.5375 25.4996 48.958C25.6043 48.6488 25.6419 48.3208 25.6099 47.996C25.5779 47.6712 25.4771 47.3568 25.3142 47.0737C24.6596 45.8469 23.3043 45.2179 21.9646 45.1089C21.2748 45.0551 20.5812 45.1381 19.9239 45.3533C19.2666 45.5684 18.6586 45.9114 18.135 46.3623C17.126 47.2679 16.5047 48.5255 16.3995 49.875C16.2826 51.2742 16.8271 52.6329 17.621 53.7621C18.4521 54.9093 19.4438 55.9319 20.566 56.7985C22.7598 58.5447 25.3332 59.7546 28.0802 60.3315C28.4069 60.3988 28.7354 60.4564 29.0656 60.5043C29.1707 60.5297 29.2816 60.5142 29.3756 60.461C29.4696 60.4078 29.5398 60.3208 29.5717 60.2179C29.5999 60.113 29.5856 60.0013 29.5318 59.9068C29.4781 59.8124 29.3892 59.7429 29.2844 59.7133L29.2844 59.7133Z" fill="#3F3D56"/>
<path d="M68.4919 41.887C64.904 41.8365 61.3274 41.9273 57.7622 42.1593C56.5435 42.2387 55.4891 42.6681 55.4891 43.3898C55.4891 43.9932 56.5351 44.7002 57.7622 44.6203C61.3256 44.3883 64.9022 44.2975 68.4919 44.3479C71.4185 44.3891 71.4167 41.9282 68.4919 41.887Z" fill="#CCCCCC"/>
<path d="M63.189 44.2261C62.8012 44.2261 53.6926 44.2116 53.6926 42.9573C53.6926 41.703 62.8012 41.6886 63.189 41.6886C63.5767 41.6886 72.6854 41.703 72.6854 42.9573C72.6854 44.2116 63.5767 44.2261 63.189 44.2261ZM54.0488 42.9573C54.298 43.3376 57.6462 43.8761 63.189 43.8761C68.7318 43.8761 72.0799 43.3376 72.3292 42.9573C72.0799 42.5771 68.7318 42.0386 63.189 42.0386C57.6462 42.0386 54.298 42.5771 54.0488 42.9573V42.9573Z" fill="#3F3D56"/>
<path d="M92.0883 77.2011C94.1047 77.1453 96.6141 77.0755 98.5474 75.6676C99.1231 75.2311 99.5961 74.6745 99.9333 74.0366C100.27 73.3987 100.464 72.6951 100.499 71.9749C100.539 70.863 100.136 69.8924 99.3646 69.2428C98.3548 68.3921 96.8803 68.1926 95.2913 68.6581L96.9376 56.6636L95.7291 56.4985L93.7937 70.5996L94.8029 70.1379C95.9729 69.6029 97.5791 69.3306 98.5771 70.1715C98.8222 70.3913 99.0132 70.6645 99.1351 70.9699C99.257 71.2752 99.3067 71.6045 99.2802 71.9321C99.2506 72.4681 99.1056 72.9915 98.855 73.4666C98.6043 73.9416 98.254 74.3574 97.8278 74.6854C96.3233 75.781 94.323 75.9223 92.0543 75.9856L92.0883 77.2011Z" fill="#3F3D56"/>
<path d="M88.7468 57.698H82.1768V58.9142H88.7468V57.698Z" fill="#3F3D56"/>
<path d="M35.7148 52.973C35.4224 52.9721 35.1398 52.8674 34.9178 52.6776C34.6957 52.4879 34.5487 52.2255 34.5031 51.9376L34.102 49.3861C34.0519 49.0652 34.1316 48.7376 34.3235 48.4752C34.5154 48.2128 34.8039 48.037 35.1257 47.9863L56.4563 44.6543C56.7782 44.6044 57.1068 44.6838 57.37 44.8751C57.6332 45.0664 57.8095 45.354 57.8603 45.6748L58.2613 48.2263C58.3114 48.5472 58.2317 48.8748 58.0398 49.1372C57.8479 49.3997 57.5595 49.5755 57.2377 49.6261L35.907 52.958C35.8434 52.968 35.7792 52.973 35.7148 52.973Z" fill="#2F2E41"/>
<path d="M26.8871 23.0719C31.8308 23.0719 35.8384 19.0765 35.8384 14.148C35.8384 9.21938 31.8308 5.22398 26.8871 5.22398C21.9434 5.22398 17.9358 9.21938 17.9358 14.148C17.9358 19.0765 21.9434 23.0719 26.8871 23.0719Z" fill="#49B8A4"/>
<path d="M31.9552 16.457C32.2413 16.3572 32.5026 16.1976 32.7216 15.9887C32.8665 15.8398 32.977 15.6611 33.0454 15.4652C33.1138 15.2692 33.1383 15.0607 33.1174 14.8543C33.1052 14.7072 33.0591 14.5649 32.9826 14.4385C32.9061 14.3121 32.8013 14.205 32.6765 14.1257C32.3525 13.9271 31.9244 13.9346 31.4923 14.1343L31.4424 10.6508L31.0914 10.6558L31.15 14.751L31.4172 14.5763C31.7271 14.374 32.1722 14.2274 32.4925 14.4238C32.5718 14.4758 32.6379 14.5453 32.6858 14.6269C32.7336 14.7085 32.762 14.8001 32.7686 14.8944C32.7834 15.0482 32.7647 15.2033 32.714 15.3493C32.6632 15.4952 32.5815 15.6286 32.4744 15.7402C32.0939 16.1166 31.5307 16.2427 30.8879 16.3581L30.9501 16.7025C31.2918 16.6507 31.6282 16.5686 31.9552 16.457Z" fill="#2F2E41"/>
<path d="M35.0569 10.4063L33.1877 10.6885L33.2402 11.0345L35.1095 10.7523L35.0569 10.4063Z" fill="#2F2E41"/>
<path d="M29.1566 11.297L27.2874 11.5792L27.3399 11.9252L29.2092 11.6429L29.1566 11.297Z" fill="#2F2E41"/>
<path d="M32.8025 52.817C32.4806 52.8163 32.1665 52.7179 31.9021 52.5349C31.6376 52.3519 31.4353 52.0929 31.3221 51.7925L25.1505 35.3148C24.3961 33.2939 24.4767 31.0573 25.3745 29.0955C26.2722 27.1338 27.9139 25.6072 29.9393 24.8506L34.9576 22.9825C35.1516 22.9098 35.3582 22.876 35.5653 22.8832C35.7725 22.8904 35.9762 22.9383 36.1648 23.0243C36.3528 23.108 36.5222 23.2283 36.6631 23.3781C36.804 23.5279 36.9136 23.7042 36.9854 23.8967L48.4178 45.4164C48.492 45.6105 48.527 45.8172 48.5208 46.0248C48.5146 46.2324 48.4672 46.4367 48.3815 46.626C48.2957 46.8152 48.1733 46.9857 48.0212 47.1277C47.8691 47.2696 47.6903 47.3801 47.4952 47.4529L33.3546 52.7169C33.178 52.783 32.9911 52.8168 32.8025 52.817Z" fill="#2F2E41"/>
<path d="M33.435 23.5492L44.7784 38.672L37.1028 23.708C37.0395 23.5334 36.9422 23.3729 36.8166 23.2358C36.691 23.0987 36.5395 22.9876 36.3708 22.9089C36.2022 22.8301 36.0196 22.7853 35.8335 22.7769C35.6474 22.7685 35.4615 22.7968 35.2864 22.86L33.435 23.5492Z" fill="#E6E6E6"/>
<path d="M51.3959 35.0341L31.1422 33.7334C30.823 33.7129 30.5109 33.6299 30.2238 33.4892C29.9367 33.3484 29.6803 33.1527 29.4691 32.9132C29.2579 32.6736 29.0961 32.3949 28.9929 32.0931C28.8897 31.7912 28.8472 31.472 28.8678 31.1537C28.8883 30.8354 28.9716 30.5243 29.1127 30.2381C29.2539 29.9519 29.4502 29.6962 29.6905 29.4857C29.9308 29.2751 30.2103 29.1138 30.5131 29.0109C30.816 28.9081 31.1361 28.8657 31.4554 28.8862L51.709 30.1868C51.8585 30.1963 52.0047 30.2352 52.1391 30.3011C52.2736 30.367 52.3937 30.4587 52.4926 30.5708C52.5915 30.683 52.6673 30.8135 52.7156 30.9549C52.7639 31.0963 52.7838 31.2458 52.7742 31.3948L52.6077 33.9721C52.5882 34.2732 52.4496 34.5542 52.2224 34.7533C51.9951 34.9524 51.6978 35.0534 51.3959 35.0341Z" fill="#49B8A4"/>
<path d="M45.9838 35.8679C45.9571 35.8679 45.9302 35.867 45.9034 35.8653H45.9033L29.2722 34.7973C29.1111 34.787 28.9537 34.7452 28.809 34.6742C28.6642 34.6032 28.5348 34.5045 28.4283 34.3837C28.3218 34.2629 28.2402 34.1223 28.1881 33.9701C28.1361 33.8178 28.1147 33.6568 28.125 33.4963L28.4094 29.0941C28.4198 28.9336 28.4618 28.7767 28.533 28.6324C28.6042 28.488 28.7032 28.3591 28.8244 28.2529C28.9456 28.1467 29.0866 28.0654 29.2393 28.0135C29.3921 27.9616 29.5536 27.9403 29.7146 27.9506L46.3457 29.0185C46.6707 29.0398 46.974 29.1887 47.1891 29.4326C47.4041 29.6765 47.5133 29.9954 47.4928 30.3195L47.2084 34.7218C47.1928 34.9577 47.1091 35.184 46.9676 35.3737C46.8261 35.5634 46.6326 35.7083 46.4105 35.7911C46.274 35.8419 46.1295 35.868 45.9838 35.8679Z" fill="#2F2E41"/>
<path d="M26.7845 8.21366C27.9621 7.20397 29.5791 8.1072 30.9296 7.94909C32.2216 7.79781 33.2418 6.64242 33.5024 5.41496C33.8064 3.98293 33.0609 2.54823 31.962 1.65538C30.7584 0.677495 29.1621 0.396767 27.6495 0.577684C25.9158 0.785035 24.3303 1.5907 22.9076 2.5652C21.5343 3.47669 20.2715 4.54353 19.1442 5.74444C18.1348 6.85585 17.2796 8.18063 17.0065 9.6762C16.7583 11.0354 16.9478 12.5415 17.7538 13.6929C18.1811 14.283 18.7538 14.7534 19.4166 15.0587C20.1077 15.397 20.8449 15.6388 21.5144 16.0213C22.5267 16.5997 23.5106 17.7989 23.1935 19.0469C23.1255 19.3195 22.9914 19.5713 22.8028 19.7801C22.5763 20.0308 22.1677 19.6995 22.3948 19.4481C22.7937 19.0066 22.778 18.4179 22.5654 17.8908C22.3126 17.2968 21.865 16.8061 21.2958 16.4989C20.595 16.0995 19.8213 15.8529 19.103 15.489C18.4154 15.1566 17.8186 14.6636 17.3633 14.0518C16.5036 12.8607 16.2465 11.3105 16.4415 9.87656C16.6524 8.32477 17.4522 6.91464 18.4547 5.73296C19.5458 4.44695 20.8859 3.35838 22.2551 2.38045C23.7241 1.33112 25.3472 0.44399 27.1432 0.123128C28.7 -0.15501 30.3875 0.0162291 31.7489 0.862056C33.0197 1.65158 33.9942 3.00972 34.0911 4.52731C34.1259 5.2178 33.9755 5.90508 33.6554 6.51839C33.3353 7.1317 32.8571 7.6489 32.2699 8.01677C31.6674 8.37621 30.9669 8.53799 30.2673 8.4793C29.5193 8.43156 28.7706 8.20322 28.0179 8.26661C27.6772 8.28723 27.3526 8.41798 27.0932 8.63906C26.8359 8.85966 26.5293 8.43246 26.7845 8.21367V8.21366Z" fill="#2F2E41"/>
<path d="M129.791 104.494H0.208974C0.153653 104.494 0.100654 104.471 0.0615927 104.432C0.0225314 104.393 0.000595093 104.34 0.000595093 104.285C0.000595093 104.23 0.0225314 104.177 0.0615927 104.138C0.100654 104.099 0.153653 104.077 0.208974 104.077H129.791C129.846 104.077 129.9 104.099 129.939 104.138C129.978 104.177 130 104.23 130 104.285C130 104.341 129.978 104.394 129.939 104.433C129.9 104.472 129.846 104.494 129.791 104.494Z" fill="#3F3D56"/>
</g>
<defs>
<clipPath id="clip0_12_41">
<rect width="130" height="104.494" fill="white"/>
</clipPath>
</defs>
</svg>
