<svg width="81" height="81" viewBox="0 0 81 81" fill="none" xmlns="http://www.w3.org/2000/svg">
<g clip-path="url(#clip0_39_499)">
<path fill-rule="evenodd" clip-rule="evenodd" d="M40.5 81C32.4899 81 24.6596 78.6247 17.9994 74.1745C11.3392 69.7243 6.14829 63.3991 3.08294 55.9987C0.0175899 48.5983 -0.784502 40.4551 0.7782 32.5988C2.3409 24.7426 6.1982 17.5262 11.8622 11.8622C17.5263 6.19818 24.7426 2.34092 32.5989 0.778221C40.4551 -0.784481 48.5983 0.0175291 55.9988 3.08288C63.3992 6.14823 69.7244 11.3392 74.1746 17.9994C78.6248 24.6596 81 32.4899 81 40.5C81 51.2413 76.7331 61.5426 69.1378 69.1378C61.5426 76.7331 51.2413 81 40.5 81ZM17.5689 49.6328C16.698 48.7523 16.2095 47.5638 16.2095 46.3253C16.2095 45.0868 16.698 43.8983 17.5689 43.0178L19.9531 40.6472C20.3585 40.2381 20.842 39.9146 21.3748 39.6959C21.9077 39.4772 22.4791 39.3679 23.0551 39.3743C23.6311 39.3807 24.1998 39.5028 24.7277 39.7333C25.2555 39.9638 25.7317 40.298 26.1279 40.716L30.3399 45.086C30.5408 45.2979 30.7827 45.4666 31.0509 45.582C31.3191 45.6973 31.6079 45.7568 31.8999 45.7568C32.1918 45.7568 32.4807 45.6973 32.7489 45.582C33.0171 45.4666 33.2589 45.2979 33.4598 45.086L54.9248 22.9595C55.3239 22.5384 55.804 22.2025 56.3363 21.9718C56.8685 21.7411 57.4419 21.6204 58.022 21.617C58.6021 21.6136 59.1769 21.7275 59.7118 21.952C60.2468 22.1764 60.7307 22.5067 61.1348 22.923L63.45 25.2639C64.2997 26.1408 64.7748 27.3139 64.7748 28.535C64.7748 29.756 64.2997 30.9291 63.45 31.806L34.9529 60.7649C34.5552 61.1765 34.0793 61.5046 33.5532 61.73C33.027 61.9553 32.4611 62.0733 31.8888 62.0771C31.3164 62.0808 30.749 61.9703 30.22 61.7519C29.6909 61.5336 29.2107 61.2117 28.8077 60.8054L17.5689 49.6328Z" fill="#49B8A4"/>
</g>
<defs>
<clipPath id="clip0_39_499">
<rect width="81" height="81" fill="white"/>
</clipPath>
</defs>
</svg>
